<mxfile host="app.diagrams.net" modified="2020-10-12T20:18:49.074Z" agent="5.0 (Windows NT 10.0; Win64; x64) AppleWebKit/537.36 (KHTML, like Gecko) Chrome/85.0.4183.121 Safari/537.36" etag="6LxkRFzwevIWjYizASNd" version="13.7.9" type="github" pages="2">
  <diagram id="Ez25VocBVNvCZ8aYcAD5" name="Página-1">
    <mxGraphModel dx="1221" dy="645" grid="1" gridSize="10" guides="1" tooltips="1" connect="1" arrows="1" fold="1" page="1" pageScale="1" pageWidth="827" pageHeight="1169" math="0" shadow="0">
      <root>
        <mxCell id="0" />
        <mxCell id="1" parent="0" />
        <mxCell id="mPLBIlm4_C3mV12VdI7K-28" value="" style="fontSize=12;html=1;endArrow=ERoneToMany;startArrow=ERoneToMany;exitX=0.5;exitY=0;exitDx=0;exitDy=0;edgeStyle=elbowEdgeStyle;elbow=vertical;entryX=0.665;entryY=1.014;entryDx=0;entryDy=0;entryPerimeter=0;" edge="1" parent="1" source="mPLBIlm4_C3mV12VdI7K-21" target="mPLBIlm4_C3mV12VdI7K-15">
          <mxGeometry width="100" height="100" relative="1" as="geometry">
            <mxPoint x="457" y="480" as="sourcePoint" />
            <mxPoint x="483" y="357" as="targetPoint" />
            <Array as="points">
              <mxPoint x="517" y="390" />
            </Array>
          </mxGeometry>
        </mxCell>
        <mxCell id="mPLBIlm4_C3mV12VdI7K-32" value="" style="fontSize=12;html=1;endArrow=ERoneToMany;startArrow=ERoneToMany;exitX=0.5;exitY=0;exitDx=0;exitDy=0;edgeStyle=elbowEdgeStyle;elbow=vertical;entryX=0.324;entryY=1.002;entryDx=0;entryDy=0;entryPerimeter=0;" edge="1" parent="1" source="mPLBIlm4_C3mV12VdI7K-16" target="mPLBIlm4_C3mV12VdI7K-15">
          <mxGeometry width="100" height="100" relative="1" as="geometry">
            <mxPoint x="577" y="450" as="sourcePoint" />
            <mxPoint x="493" y="367" as="targetPoint" />
            <Array as="points">
              <mxPoint x="407" y="390" />
            </Array>
          </mxGeometry>
        </mxCell>
        <mxCell id="mPLBIlm4_C3mV12VdI7K-35" value="" style="edgeStyle=entityRelationEdgeStyle;fontSize=12;html=1;endArrow=ERoneToMany;exitX=1.003;exitY=0.959;exitDx=0;exitDy=0;entryX=-0.002;entryY=0.935;entryDx=0;entryDy=0;entryPerimeter=0;exitPerimeter=0;" edge="1" parent="1" source="mPLBIlm4_C3mV12VdI7K-3" target="mPLBIlm4_C3mV12VdI7K-7">
          <mxGeometry width="100" height="100" relative="1" as="geometry">
            <mxPoint x="203" y="476" as="sourcePoint" />
            <mxPoint x="303" y="376" as="targetPoint" />
          </mxGeometry>
        </mxCell>
        <mxCell id="mPLBIlm4_C3mV12VdI7K-38" value="&lt;font style=&quot;font-size: 15px&quot;&gt;Solicita&lt;/font&gt;" style="edgeLabel;html=1;align=center;verticalAlign=middle;resizable=0;points=[];" vertex="1" connectable="0" parent="mPLBIlm4_C3mV12VdI7K-35">
          <mxGeometry x="-0.1378" y="-1" relative="1" as="geometry">
            <mxPoint x="13.68" y="0.46" as="offset" />
          </mxGeometry>
        </mxCell>
        <mxCell id="mPLBIlm4_C3mV12VdI7K-49" value="" style="edgeStyle=entityRelationEdgeStyle;fontSize=12;html=1;endArrow=ERmandOne;exitX=1;exitY=-0.2;exitDx=0;exitDy=0;entryX=0;entryY=0.25;entryDx=0;entryDy=0;exitPerimeter=0;" edge="1" parent="1" source="mPLBIlm4_C3mV12VdI7K-8" target="mPLBIlm4_C3mV12VdI7K-39">
          <mxGeometry width="100" height="100" relative="1" as="geometry">
            <mxPoint x="113" y="470" as="sourcePoint" />
            <mxPoint x="213" y="370" as="targetPoint" />
          </mxGeometry>
        </mxCell>
        <mxCell id="mPLBIlm4_C3mV12VdI7K-50" value="&lt;span style=&quot;font-size: 15px&quot;&gt;Calcula&lt;/span&gt;" style="edgeLabel;html=1;align=center;verticalAlign=middle;resizable=0;points=[];" vertex="1" connectable="0" parent="mPLBIlm4_C3mV12VdI7K-49">
          <mxGeometry x="-0.1088" y="-3" relative="1" as="geometry">
            <mxPoint x="12.58" y="4.34" as="offset" />
          </mxGeometry>
        </mxCell>
        <mxCell id="mPLBIlm4_C3mV12VdI7K-16" value="Medicamento" style="swimlane;fontStyle=0;childLayout=stackLayout;horizontal=1;startSize=26;horizontalStack=0;resizeParent=1;resizeParentMax=0;resizeLast=0;collapsible=1;marginBottom=0;align=center;fontSize=14;" vertex="1" parent="1">
          <mxGeometry x="277" y="440" width="160" height="146" as="geometry" />
        </mxCell>
        <mxCell id="mPLBIlm4_C3mV12VdI7K-17" value="*Genérico" style="text;strokeColor=none;fillColor=none;spacingLeft=4;spacingRight=4;overflow=hidden;rotatable=0;points=[[0,0.5],[1,0.5]];portConstraint=eastwest;fontSize=12;" vertex="1" parent="mPLBIlm4_C3mV12VdI7K-16">
          <mxGeometry y="26" width="160" height="30" as="geometry" />
        </mxCell>
        <mxCell id="mPLBIlm4_C3mV12VdI7K-18" value="Princípio ativo" style="text;strokeColor=none;fillColor=none;spacingLeft=4;spacingRight=4;overflow=hidden;rotatable=0;points=[[0,0.5],[1,0.5]];portConstraint=eastwest;fontSize=12;" vertex="1" parent="mPLBIlm4_C3mV12VdI7K-16">
          <mxGeometry y="56" width="160" height="30" as="geometry" />
        </mxCell>
        <mxCell id="mPLBIlm4_C3mV12VdI7K-19" value="Data de validade" style="text;strokeColor=none;fillColor=none;spacingLeft=4;spacingRight=4;overflow=hidden;rotatable=0;points=[[0,0.5],[1,0.5]];portConstraint=eastwest;fontSize=12;" vertex="1" parent="mPLBIlm4_C3mV12VdI7K-16">
          <mxGeometry y="86" width="160" height="30" as="geometry" />
        </mxCell>
        <mxCell id="mPLBIlm4_C3mV12VdI7K-20" value="Nome do laboratório" style="text;strokeColor=none;fillColor=none;spacingLeft=4;spacingRight=4;overflow=hidden;rotatable=0;points=[[0,0.5],[1,0.5]];portConstraint=eastwest;fontSize=12;" vertex="1" parent="mPLBIlm4_C3mV12VdI7K-16">
          <mxGeometry y="116" width="160" height="30" as="geometry" />
        </mxCell>
        <mxCell id="mPLBIlm4_C3mV12VdI7K-5" value="Pedido" style="swimlane;fontStyle=0;childLayout=stackLayout;horizontal=1;startSize=26;horizontalStack=0;resizeParent=1;resizeParentMax=0;resizeLast=0;collapsible=1;marginBottom=0;align=center;fontSize=14;" vertex="1" parent="1">
          <mxGeometry x="377" y="180" width="160" height="176" as="geometry" />
        </mxCell>
        <mxCell id="mPLBIlm4_C3mV12VdI7K-6" value="Nome do cliente" style="text;strokeColor=none;fillColor=none;spacingLeft=4;spacingRight=4;overflow=hidden;rotatable=0;points=[[0,0.5],[1,0.5]];portConstraint=eastwest;fontSize=12;" vertex="1" parent="mPLBIlm4_C3mV12VdI7K-5">
          <mxGeometry y="26" width="160" height="30" as="geometry" />
        </mxCell>
        <mxCell id="mPLBIlm4_C3mV12VdI7K-7" value="Data do pedido" style="text;strokeColor=none;fillColor=none;spacingLeft=4;spacingRight=4;overflow=hidden;rotatable=0;points=[[0,0.5],[1,0.5]];portConstraint=eastwest;fontSize=12;" vertex="1" parent="mPLBIlm4_C3mV12VdI7K-5">
          <mxGeometry y="56" width="160" height="30" as="geometry" />
        </mxCell>
        <mxCell id="mPLBIlm4_C3mV12VdI7K-8" value="Nome do medicamento" style="text;strokeColor=none;fillColor=none;spacingLeft=4;spacingRight=4;overflow=hidden;rotatable=0;points=[[0,0.5],[1,0.5]];portConstraint=eastwest;fontSize=12;" vertex="1" parent="mPLBIlm4_C3mV12VdI7K-5">
          <mxGeometry y="86" width="160" height="30" as="geometry" />
        </mxCell>
        <mxCell id="mPLBIlm4_C3mV12VdI7K-14" value="Quantidade" style="text;strokeColor=none;fillColor=none;spacingLeft=4;spacingRight=4;overflow=hidden;rotatable=0;points=[[0,0.5],[1,0.5]];portConstraint=eastwest;fontSize=12;" vertex="1" parent="mPLBIlm4_C3mV12VdI7K-5">
          <mxGeometry y="116" width="160" height="30" as="geometry" />
        </mxCell>
        <mxCell id="mPLBIlm4_C3mV12VdI7K-15" value="Preço" style="text;strokeColor=none;fillColor=none;spacingLeft=4;spacingRight=4;overflow=hidden;rotatable=0;points=[[0,0.5],[1,0.5]];portConstraint=eastwest;fontSize=12;" vertex="1" parent="mPLBIlm4_C3mV12VdI7K-5">
          <mxGeometry y="146" width="160" height="30" as="geometry" />
        </mxCell>
        <mxCell id="mPLBIlm4_C3mV12VdI7K-21" value="Medicamento" style="swimlane;fontStyle=0;childLayout=stackLayout;horizontal=1;startSize=26;horizontalStack=0;resizeParent=1;resizeParentMax=0;resizeLast=0;collapsible=1;marginBottom=0;align=center;fontSize=14;" vertex="1" parent="1">
          <mxGeometry x="467" y="440" width="160" height="176" as="geometry" />
        </mxCell>
        <mxCell id="mPLBIlm4_C3mV12VdI7K-22" value="*De marca" style="text;strokeColor=none;fillColor=none;spacingLeft=4;spacingRight=4;overflow=hidden;rotatable=0;points=[[0,0.5],[1,0.5]];portConstraint=eastwest;fontSize=12;" vertex="1" parent="mPLBIlm4_C3mV12VdI7K-21">
          <mxGeometry y="26" width="160" height="30" as="geometry" />
        </mxCell>
        <mxCell id="mPLBIlm4_C3mV12VdI7K-23" value="Nome do medicamento" style="text;strokeColor=none;fillColor=none;spacingLeft=4;spacingRight=4;overflow=hidden;rotatable=0;points=[[0,0.5],[1,0.5]];portConstraint=eastwest;fontSize=12;" vertex="1" parent="mPLBIlm4_C3mV12VdI7K-21">
          <mxGeometry y="56" width="160" height="30" as="geometry" />
        </mxCell>
        <mxCell id="mPLBIlm4_C3mV12VdI7K-24" value="Data de validade" style="text;strokeColor=none;fillColor=none;spacingLeft=4;spacingRight=4;overflow=hidden;rotatable=0;points=[[0,0.5],[1,0.5]];portConstraint=eastwest;fontSize=12;" vertex="1" parent="mPLBIlm4_C3mV12VdI7K-21">
          <mxGeometry y="86" width="160" height="30" as="geometry" />
        </mxCell>
        <mxCell id="mPLBIlm4_C3mV12VdI7K-25" value="Nome do laboratório" style="text;strokeColor=none;fillColor=none;spacingLeft=4;spacingRight=4;overflow=hidden;rotatable=0;points=[[0,0.5],[1,0.5]];portConstraint=eastwest;fontSize=12;" vertex="1" parent="mPLBIlm4_C3mV12VdI7K-21">
          <mxGeometry y="116" width="160" height="30" as="geometry" />
        </mxCell>
        <mxCell id="mPLBIlm4_C3mV12VdI7K-26" value="Cor da tarja" style="text;strokeColor=none;fillColor=none;spacingLeft=4;spacingRight=4;overflow=hidden;rotatable=0;points=[[0,0.5],[1,0.5]];portConstraint=eastwest;fontSize=12;" vertex="1" parent="mPLBIlm4_C3mV12VdI7K-21">
          <mxGeometry y="146" width="160" height="30" as="geometry" />
        </mxCell>
        <mxCell id="mPLBIlm4_C3mV12VdI7K-39" value="Valor do pedido" style="swimlane;fontStyle=0;childLayout=stackLayout;horizontal=1;startSize=26;horizontalStack=0;resizeParent=1;resizeParentMax=0;resizeLast=0;collapsible=1;marginBottom=0;align=center;fontSize=14;" vertex="1" parent="1">
          <mxGeometry x="613" y="300" width="160" height="56" as="geometry" />
        </mxCell>
        <mxCell id="mPLBIlm4_C3mV12VdI7K-1" value="Cliente" style="swimlane;fontStyle=0;childLayout=stackLayout;horizontal=1;startSize=26;horizontalStack=0;resizeParent=1;resizeParentMax=0;resizeLast=0;collapsible=1;marginBottom=0;align=center;fontSize=14;" vertex="1" parent="1">
          <mxGeometry x="53" y="180" width="160" height="266" as="geometry" />
        </mxCell>
        <mxCell id="mPLBIlm4_C3mV12VdI7K-2" value="Nome" style="text;strokeColor=none;fillColor=none;spacingLeft=4;spacingRight=4;overflow=hidden;rotatable=0;points=[[0,0.5],[1,0.5]];portConstraint=eastwest;fontSize=12;" vertex="1" parent="mPLBIlm4_C3mV12VdI7K-1">
          <mxGeometry y="26" width="160" height="30" as="geometry" />
        </mxCell>
        <mxCell id="mPLBIlm4_C3mV12VdI7K-3" value="CGC" style="text;strokeColor=none;fillColor=none;spacingLeft=4;spacingRight=4;overflow=hidden;rotatable=0;points=[[0,0.5],[1,0.5]];portConstraint=eastwest;fontSize=12;" vertex="1" parent="mPLBIlm4_C3mV12VdI7K-1">
          <mxGeometry y="56" width="160" height="30" as="geometry" />
        </mxCell>
        <mxCell id="mPLBIlm4_C3mV12VdI7K-4" value="Endereço" style="text;strokeColor=none;fillColor=none;spacingLeft=4;spacingRight=4;overflow=hidden;rotatable=0;points=[[0,0.5],[1,0.5]];portConstraint=eastwest;fontSize=12;" vertex="1" parent="mPLBIlm4_C3mV12VdI7K-1">
          <mxGeometry y="86" width="160" height="30" as="geometry" />
        </mxCell>
        <mxCell id="mPLBIlm4_C3mV12VdI7K-9" value="Cidade" style="text;strokeColor=none;fillColor=none;spacingLeft=4;spacingRight=4;overflow=hidden;rotatable=0;points=[[0,0.5],[1,0.5]];portConstraint=eastwest;fontSize=12;" vertex="1" parent="mPLBIlm4_C3mV12VdI7K-1">
          <mxGeometry y="116" width="160" height="30" as="geometry" />
        </mxCell>
        <mxCell id="mPLBIlm4_C3mV12VdI7K-10" value="Estado" style="text;strokeColor=none;fillColor=none;spacingLeft=4;spacingRight=4;overflow=hidden;rotatable=0;points=[[0,0.5],[1,0.5]];portConstraint=eastwest;fontSize=12;" vertex="1" parent="mPLBIlm4_C3mV12VdI7K-1">
          <mxGeometry y="146" width="160" height="30" as="geometry" />
        </mxCell>
        <mxCell id="mPLBIlm4_C3mV12VdI7K-11" value="CEP" style="text;strokeColor=none;fillColor=none;spacingLeft=4;spacingRight=4;overflow=hidden;rotatable=0;points=[[0,0.5],[1,0.5]];portConstraint=eastwest;fontSize=12;" vertex="1" parent="mPLBIlm4_C3mV12VdI7K-1">
          <mxGeometry y="176" width="160" height="30" as="geometry" />
        </mxCell>
        <mxCell id="mPLBIlm4_C3mV12VdI7K-12" value="Telefone" style="text;strokeColor=none;fillColor=none;spacingLeft=4;spacingRight=4;overflow=hidden;rotatable=0;points=[[0,0.5],[1,0.5]];portConstraint=eastwest;fontSize=12;" vertex="1" parent="mPLBIlm4_C3mV12VdI7K-1">
          <mxGeometry y="206" width="160" height="30" as="geometry" />
        </mxCell>
        <mxCell id="mPLBIlm4_C3mV12VdI7K-13" value="Pessoa Contato" style="text;strokeColor=none;fillColor=none;spacingLeft=4;spacingRight=4;overflow=hidden;rotatable=0;points=[[0,0.5],[1,0.5]];portConstraint=eastwest;fontSize=12;" vertex="1" parent="mPLBIlm4_C3mV12VdI7K-1">
          <mxGeometry y="236" width="160" height="30" as="geometry" />
        </mxCell>
      </root>
    </mxGraphModel>
  </diagram>
  <diagram id="hkz9usuGCWfTAndriPhW" name="Página-2">
    <mxGraphModel dx="1038" dy="548" grid="1" gridSize="10" guides="1" tooltips="1" connect="1" arrows="1" fold="1" page="1" pageScale="1" pageWidth="827" pageHeight="1169" math="0" shadow="0">
      <root>
        <mxCell id="ca_7RuTEwmACOu9b5I9q-0" />
        <mxCell id="ca_7RuTEwmACOu9b5I9q-1" parent="ca_7RuTEwmACOu9b5I9q-0" />
        <mxCell id="ca_7RuTEwmACOu9b5I9q-2" value="Assembléia" style="swimlane;fontStyle=0;childLayout=stackLayout;horizontal=1;startSize=26;horizontalStack=0;resizeParent=1;resizeParentMax=0;resizeLast=0;collapsible=1;marginBottom=0;align=center;fontSize=14;" vertex="1" parent="ca_7RuTEwmACOu9b5I9q-1">
          <mxGeometry x="40" y="120" width="160" height="206" as="geometry" />
        </mxCell>
        <mxCell id="ca_7RuTEwmACOu9b5I9q-3" value="Data de realização" style="text;strokeColor=none;fillColor=none;spacingLeft=4;spacingRight=4;overflow=hidden;rotatable=0;points=[[0,0.5],[1,0.5]];portConstraint=eastwest;fontSize=12;" vertex="1" parent="ca_7RuTEwmACOu9b5I9q-2">
          <mxGeometry y="26" width="160" height="30" as="geometry" />
        </mxCell>
        <mxCell id="ca_7RuTEwmACOu9b5I9q-4" value="*Nome do condomínio" style="text;strokeColor=none;fillColor=none;spacingLeft=4;spacingRight=4;overflow=hidden;rotatable=0;points=[[0,0.5],[1,0.5]];portConstraint=eastwest;fontSize=12;" vertex="1" parent="ca_7RuTEwmACOu9b5I9q-2">
          <mxGeometry y="56" width="160" height="30" as="geometry" />
        </mxCell>
        <mxCell id="ca_7RuTEwmACOu9b5I9q-5" value="Número de moradores" style="text;strokeColor=none;fillColor=none;spacingLeft=4;spacingRight=4;overflow=hidden;rotatable=0;points=[[0,0.5],[1,0.5]];portConstraint=eastwest;fontSize=12;" vertex="1" parent="ca_7RuTEwmACOu9b5I9q-2">
          <mxGeometry y="86" width="160" height="30" as="geometry" />
        </mxCell>
        <mxCell id="ca_7RuTEwmACOu9b5I9q-6" value="Endereço do condomínio" style="text;strokeColor=none;fillColor=none;spacingLeft=4;spacingRight=4;overflow=hidden;rotatable=0;points=[[0,0.5],[1,0.5]];portConstraint=eastwest;fontSize=12;" vertex="1" parent="ca_7RuTEwmACOu9b5I9q-2">
          <mxGeometry y="116" width="160" height="30" as="geometry" />
        </mxCell>
        <mxCell id="ca_7RuTEwmACOu9b5I9q-7" value="Número de participantes" style="text;strokeColor=none;fillColor=none;spacingLeft=4;spacingRight=4;overflow=hidden;rotatable=0;points=[[0,0.5],[1,0.5]];portConstraint=eastwest;fontSize=12;" vertex="1" parent="ca_7RuTEwmACOu9b5I9q-2">
          <mxGeometry y="146" width="160" height="30" as="geometry" />
        </mxCell>
        <mxCell id="ca_7RuTEwmACOu9b5I9q-8" value="Status" style="text;strokeColor=none;fillColor=none;spacingLeft=4;spacingRight=4;overflow=hidden;rotatable=0;points=[[0,0.5],[1,0.5]];portConstraint=eastwest;fontSize=12;" vertex="1" parent="ca_7RuTEwmACOu9b5I9q-2">
          <mxGeometry y="176" width="160" height="30" as="geometry" />
        </mxCell>
        <mxCell id="ca_7RuTEwmACOu9b5I9q-12" value="Assuntos" style="swimlane;fontStyle=0;childLayout=stackLayout;horizontal=1;startSize=26;horizontalStack=0;resizeParent=1;resizeParentMax=0;resizeLast=0;collapsible=1;marginBottom=0;align=center;fontSize=14;" vertex="1" parent="ca_7RuTEwmACOu9b5I9q-1">
          <mxGeometry x="320" y="120" width="160" height="116" as="geometry" />
        </mxCell>
        <mxCell id="ca_7RuTEwmACOu9b5I9q-13" value="Votos" style="text;strokeColor=none;fillColor=none;spacingLeft=4;spacingRight=4;overflow=hidden;rotatable=0;points=[[0,0.5],[1,0.5]];portConstraint=eastwest;fontSize=12;" vertex="1" parent="ca_7RuTEwmACOu9b5I9q-12">
          <mxGeometry y="26" width="160" height="30" as="geometry" />
        </mxCell>
        <mxCell id="ca_7RuTEwmACOu9b5I9q-14" value="Item 2" style="text;strokeColor=none;fillColor=none;spacingLeft=4;spacingRight=4;overflow=hidden;rotatable=0;points=[[0,0.5],[1,0.5]];portConstraint=eastwest;fontSize=12;" vertex="1" parent="ca_7RuTEwmACOu9b5I9q-12">
          <mxGeometry y="56" width="160" height="30" as="geometry" />
        </mxCell>
        <mxCell id="ca_7RuTEwmACOu9b5I9q-15" value="Item 3" style="text;strokeColor=none;fillColor=none;spacingLeft=4;spacingRight=4;overflow=hidden;rotatable=0;points=[[0,0.5],[1,0.5]];portConstraint=eastwest;fontSize=12;" vertex="1" parent="ca_7RuTEwmACOu9b5I9q-12">
          <mxGeometry y="86" width="160" height="30" as="geometry" />
        </mxCell>
      </root>
    </mxGraphModel>
  </diagram>
</mxfile>
